/* XPM */
static char *IconEPIwm2[] = {
/* width height num_colors chars_per_pixel */
"    48    30        2            1",
/* colors */
". c #100aaf",
"# c None",
/* pixels */
"...................##..........###########......",
"...................##..............#######......",
"...................##...............######......",
"...................##................#####......",
"...................##.................####......",
"...................##..................###......",
"...................##...................##......",
".......#########################........##......",
".......##########################.......##......",
".......###########################......##......",
".......###########################......##......",
".......###########################......##......",
".......###########################......##......",
".......##########################.......##......",
"...................##...................##......",
"...................##..................###......",
"...................##..................###......",
"...................##.................####......",
"...................##................#####......",
"...................##...............######......",
"...................##.............########......",
".......##############.......##############......",
".......##############.......##############......",
".......##############.......##############......",
"............................##############......",
"............................##############......",
"............................##############......",
"............................##############......",
"............................##############......",
"............................##############......"
};
